# xmcd
#
# Track frame offsets:
#	150
#	12285
#	23709
#	35500
#	47158
#	59446
#	70861
#	83019
#	94005
#	105708
#	116397
#	128909
#
# Disc length: 1886 seconds
#
# Revision: 1
# Processed by: cddbd v1.5.2PL0 Copyright (c) Steve Scherf et al.
# Submitted via: audiograbber 1.83.01
#
DISCID=95075c0c
DTITLE=Hank Williams - Your Cheatin' Heart
DYEAR=2013
DGENRE=Country
TTITLE0=Your Cheatin' Heart
TTITLE1=Kaw-Liga
TTITLE2=Take These Chains From My Heart
TTITLE3=Settin'The WoodOn Fire
TTITLE4=I won'tBe Home No More
TTITLE5=Window Shopping
TTITLE6=I'm Sorry For You My Friend
TTITLE7=Crazy Heart
TTITLE8=Why Should Try Anymore
TTITLE9=Moanin' The Blues
TTITLE10=I Just Don't Like This Kind Of Living 
TTITLE11=When God Comes And Gathers His Jewels
EXTD=
EXTT0=
EXTT1=
EXTT2=
EXTT3=
EXTT4=
EXTT5=
EXTT6=
EXTT7=
EXTT8=
EXTT9=
EXTT10=
EXTT11=
PLAYORDER=
